<svg width="37" height="25" viewBox="0 0 37 25" fill="none" xmlns="http://www.w3.org/2000/svg">
<path d="M20.4546 12.5H26.8023L28.741 14.4409C28.8467 14.5464 28.9722 14.63 29.1102 14.6869C29.2483 14.7438 29.3962 14.773 29.5455 14.7727H31.8182C32.1196 14.7727 32.4086 14.653 32.6218 14.4399C32.8349 14.2268 32.9546 13.9378 32.9546 13.6364V11.3637C32.9546 11.0623 32.8349 10.7732 32.6218 10.5601C32.4086 10.347 32.1196 10.2273 31.8182 10.2273H20.4546V12.5Z" fill="#282A2D"/>
<path d="M27.2727 0H9.09091C6.67985 0 4.36754 0.957789 2.66267 2.66267C0.95779 4.36754 0 6.67985 0 9.09091L0 22.7273C0 23.33 0.239447 23.9081 0.665666 24.3343C1.09189 24.7606 1.66996 25 2.27273 25H34.0909C34.6937 25 35.2718 24.7606 35.698 24.3343C36.1242 23.9081 36.3636 23.33 36.3636 22.7273V9.09091C36.3636 6.67985 35.4058 4.36754 33.701 2.66267C31.9961 0.957789 29.6838 0 27.2727 0ZM18.1818 9.09091C18.1819 7.80117 17.9075 6.52619 17.377 5.35064C16.8464 4.17509 16.0718 3.12589 15.1045 2.27273H27.2727C29.081 2.27273 30.8153 2.99107 32.0939 4.26973C33.3726 5.54838 34.0909 7.28261 34.0909 9.09091V22.7273H18.1818V9.09091ZM10.4205 9.44773C10.0455 9.28864 9.58636 9.09091 9.09091 9.09091C8.59545 9.09091 8.13636 9.28636 7.76136 9.44773C7.19091 9.69091 6.81818 9.85 6.81818 9.09091C6.81818 8.48814 7.05763 7.91007 7.48385 7.48385C7.91007 7.05763 8.48814 6.81818 9.09091 6.81818C9.69367 6.81818 10.2718 7.05763 10.698 7.48385C11.1242 7.91007 11.3636 8.48814 11.3636 9.09091C11.3636 9.85 10.9909 9.69091 10.4205 9.44773Z" fill="#282A2D"/>
</svg>
