<svg width="140" height="29" viewBox="0 0 140 29" fill="none" xmlns="http://www.w3.org/2000/svg">
<path d="M20.4546 14.5H26.8023L28.741 16.4409C28.8467 16.5464 28.9722 16.63 29.1102 16.6869C29.2483 16.7438 29.3962 16.773 29.5455 16.7727H31.8182C32.1196 16.7727 32.4086 16.653 32.6218 16.4399C32.8349 16.2268 32.9546 15.9378 32.9546 15.6364V13.3637C32.9546 13.0623 32.8349 12.7732 32.6218 12.5601C32.4086 12.347 32.1196 12.2273 31.8182 12.2273H20.4546V14.5Z" fill="#282A2D"/>
<path d="M27.2727 2H9.09091C6.67985 2 4.36754 2.95779 2.66267 4.66267C0.95779 6.36754 0 8.67985 0 11.0909L0 24.7273C0 25.33 0.239447 25.9081 0.665666 26.3343C1.09189 26.7606 1.66996 27 2.27273 27H34.0909C34.6937 27 35.2718 26.7606 35.698 26.3343C36.1242 25.9081 36.3636 25.33 36.3636 24.7273V11.0909C36.3636 8.67985 35.4058 6.36754 33.701 4.66267C31.9961 2.95779 29.6838 2 27.2727 2ZM18.1818 11.0909C18.1819 9.80117 17.9075 8.52619 17.377 7.35064C16.8464 6.17509 16.0718 5.12589 15.1045 4.27273H27.2727C29.081 4.27273 30.8153 4.99107 32.0939 6.26973C33.3726 7.54838 34.0909 9.28261 34.0909 11.0909V24.7273H18.1818V11.0909ZM10.4205 11.4477C10.0455 11.2886 9.58636 11.0909 9.09091 11.0909C8.59545 11.0909 8.13636 11.2864 7.76136 11.4477C7.19091 11.6909 6.81818 11.85 6.81818 11.0909C6.81818 10.4881 7.05763 9.91007 7.48385 9.48385C7.91007 9.05763 8.48814 8.81818 9.09091 8.81818C9.69367 8.81818 10.2718 9.05763 10.698 9.48385C11.1242 9.91007 11.3636 10.4881 11.3636 11.0909C11.3636 11.85 10.9909 11.6909 10.4205 11.4477Z" fill="#282A2D"/>
<path d="M58.7034 20.0703V23H47.7698V6.08984H51.3088V20.0703H58.7034ZM65.9573 12.6992C64.4573 12.6992 63.3792 13.8359 63.262 15.4062H68.594C68.5237 13.8008 67.4807 12.6992 65.9573 12.6992ZM68.6409 19.1562H71.7815C71.4065 21.6172 69.1565 23.2695 66.051 23.2695C62.1838 23.2695 59.8635 20.7969 59.8635 16.7773C59.8635 12.7695 62.2073 10.168 65.9221 10.168C69.5784 10.168 71.887 12.6406 71.887 16.4609V17.5039H63.2268V17.7148C63.2268 19.5078 64.3635 20.7383 66.1096 20.7383C67.3635 20.7383 68.3245 20.1172 68.6409 19.1562ZM74.5706 7.54297H77.9924V10.4375H80.3127V13.0156H77.9924V19.0273C77.9924 19.9883 78.4612 20.4453 79.469 20.4453C79.7737 20.4453 80.0901 20.4219 80.301 20.3867V22.9062C79.9495 22.9883 79.3635 23.0469 78.6721 23.0469C75.719 23.0469 74.5706 22.0625 74.5706 19.6133V13.0156H72.801V10.4375H74.5706V7.54297ZM83.1018 7.54297H86.5237V10.4375H88.844V13.0156H86.5237V19.0273C86.5237 19.9883 86.9924 20.4453 88.0002 20.4453C88.3049 20.4453 88.6213 20.4219 88.8323 20.3867V22.9062C88.4807 22.9883 87.8948 23.0469 87.2034 23.0469C84.2502 23.0469 83.1018 22.0625 83.1018 19.6133V13.0156H81.3323V10.4375H83.1018V7.54297ZM96.1682 12.6992C94.6682 12.6992 93.5901 13.8359 93.4729 15.4062H98.8049C98.7346 13.8008 97.6917 12.6992 96.1682 12.6992ZM98.8518 19.1562H101.992C101.617 21.6172 99.3674 23.2695 96.262 23.2695C92.3948 23.2695 90.0745 20.7969 90.0745 16.7773C90.0745 12.7695 92.4182 10.168 96.1331 10.168C99.7893 10.168 102.098 12.6406 102.098 16.4609V17.5039H93.4377V17.7148C93.4377 19.5078 94.5745 20.7383 96.3206 20.7383C97.5745 20.7383 98.5354 20.1172 98.8518 19.1562ZM103.867 23V10.4375H107.172V12.6992H107.242C107.688 11.1055 108.754 10.2383 110.231 10.2383C110.629 10.2383 110.969 10.2969 111.203 10.3672V13.3789C110.922 13.2617 110.453 13.1797 109.961 13.1797C108.274 13.1797 107.289 14.2109 107.289 15.9805V23H103.867ZM113.594 23V13.0156H111.883V10.4961H113.594V9.54688C113.594 7.08594 114.754 5.9375 117.731 5.9375C118.364 5.9375 119.078 6.00781 119.477 6.08984V8.35156C119.231 8.30469 118.891 8.28125 118.551 8.28125C117.426 8.28125 116.934 8.77344 116.934 9.66406V10.4961H119.43V13.0156H117.016V23H113.594ZM121.317 23V6.08984H124.739V23H121.317ZM128.653 27.6523C128.535 27.6523 127.469 27.6406 127.364 27.6172V24.9805C127.469 25.0039 128.09 25.0039 128.219 25.0039C129.473 25.0039 130.094 24.6055 130.328 23.6094C130.328 23.5625 130.457 23.0586 130.434 23.0117L126.063 10.4375H129.824L132.496 20.2578H132.555L135.227 10.4375H138.836L134.512 23.2812C133.434 26.5039 131.864 27.6523 128.653 27.6523Z" fill="#282A2D"/>
</svg>
