<svg width="351" height="222" viewBox="0 0 351 222" fill="none" xmlns="http://www.w3.org/2000/svg">
<g clip-path="url(#clip0_483_394)">
<path d="M270.288 219.829C270.286 220.062 270.194 220.284 270.03 220.45C269.867 220.612 269.645 220.704 269.415 220.703H265.904C265.423 220.704 265.032 220.316 265.031 219.835V113.659C265.031 111.319 264.245 109.419 263.28 109.415H44.734C43.7646 109.419 42.983 111.319 42.9786 113.659V219.179C42.9771 219.628 42.6356 220.004 42.1882 220.048C41.4809 220.118 40.7735 220.179 40.0704 220.236C40.053 220.236 40.0355 220.24 40.018 220.24C39.6338 220.275 39.2495 220.301 38.8652 220.332H38.8609C38.66 219.969 38.4679 219.598 38.2714 219.227C38.2084 219.101 38.1755 218.962 38.1753 218.821V108.153C38.1753 107.507 38.2015 106.856 38.2452 106.214C38.3075 105.333 38.4168 104.455 38.5727 103.585C39.3106 99.5287 40.9787 96.7821 42.8738 96.7734H265.135C265.412 96.7752 265.685 96.8332 265.939 96.9437C266.311 97.1085 266.648 97.3443 266.93 97.638C267.313 98.0361 267.641 98.4841 267.904 98.9698C268.838 100.616 269.506 103.07 269.742 105.926C269.742 105.952 269.747 105.978 269.747 106.004C269.808 106.712 269.838 107.432 269.834 108.153L269.895 117.511L269.934 123.091L270.052 140.601L270.096 146.819L270.288 219.829Z" fill="#282A2D"/>
<path d="M189.178 64.4019H166.906C166.25 64.4029 165.719 64.9354 165.719 65.5915V100.775H190.368V65.5915C190.368 64.9349 189.836 64.4023 189.179 64.4019H189.178ZM178.117 84.3928C176.667 84.3861 175.494 83.2126 175.487 81.7629V77.7047C175.487 76.2522 176.664 75.0747 178.117 75.0747C179.569 75.0747 180.747 76.2522 180.747 77.7047V81.7629C180.74 83.2126 179.567 84.3861 178.117 84.3928Z" fill="#282A2D"/>
<path d="M165.643 99.6498V103.044C165.644 103.41 165.94 103.707 166.307 103.708H189.781C190.147 103.706 190.443 103.41 190.444 103.044V99.6498H165.643Z" fill="#282A2D"/>
<path d="M226.058 9.4939H130.853C129.15 9.49661 127.77 10.8765 127.768 12.5795V76.8244C127.769 78.5279 129.15 79.9085 130.853 79.9101H226.058C227.762 79.9085 229.142 78.5279 229.144 76.8244V12.5795C229.141 10.8765 227.761 9.49661 226.058 9.4939Z" fill="#282A2D"/>
<path d="M225.264 11.7226H131.649C130.737 11.7246 129.999 12.4643 129.999 13.3762V76.0288C130 76.9395 130.738 77.6774 131.649 77.679H225.264C226.175 77.6774 226.913 76.9395 226.914 76.0288V13.3762C226.914 12.4643 226.176 11.7246 225.264 11.7226Z" fill="#86888A"/>
<path d="M207.03 104.889H151.334C150.768 104.889 150.309 104.43 150.309 103.865C150.309 103.794 150.316 103.723 150.331 103.653L151.195 99.549C151.297 99.0759 151.714 98.7373 152.198 98.7355H206.165C206.649 98.7373 207.067 99.0759 207.168 99.549L208.032 103.653C208.149 104.207 207.794 104.751 207.241 104.867C207.171 104.882 207.1 104.889 207.03 104.889Z" fill="#282A2D"/>
<path d="M154.095 99.4746H152.806C152.688 99.4746 152.593 99.57 152.593 99.6878V100.291C152.593 100.408 152.688 100.504 152.806 100.504H154.095C154.213 100.504 154.308 100.408 154.308 100.291V99.6878C154.308 99.57 154.213 99.4746 154.095 99.4746Z" fill="#282A2D"/>
<path d="M157.526 99.4746H156.237C156.119 99.4746 156.024 99.57 156.024 99.6878V100.291C156.024 100.408 156.119 100.504 156.237 100.504H157.526C157.644 100.504 157.739 100.408 157.739 100.291V99.6878C157.739 99.57 157.644 99.4746 157.526 99.4746Z" fill="#282A2D"/>
<path d="M160.957 99.4746H159.668C159.55 99.4746 159.455 99.57 159.455 99.6878V100.291C159.455 100.408 159.55 100.504 159.668 100.504H160.957C161.075 100.504 161.17 100.408 161.17 100.291V99.6878C161.17 99.57 161.075 99.4746 160.957 99.4746Z" fill="#282A2D"/>
<path d="M164.387 99.4746H163.098C162.981 99.4746 162.885 99.57 162.885 99.6878V100.291C162.885 100.408 162.981 100.504 163.098 100.504H164.387C164.505 100.504 164.601 100.408 164.601 100.291V99.6878C164.601 99.57 164.505 99.4746 164.387 99.4746Z" fill="#282A2D"/>
<path d="M167.818 99.4746H166.529C166.411 99.4746 166.316 99.57 166.316 99.6878V100.291C166.316 100.408 166.411 100.504 166.529 100.504H167.818C167.936 100.504 168.031 100.408 168.031 100.291V99.6878C168.031 99.57 167.936 99.4746 167.818 99.4746Z" fill="#282A2D"/>
<path d="M171.249 99.4746H169.96C169.843 99.4746 169.747 99.57 169.747 99.6878V100.291C169.747 100.408 169.843 100.504 169.96 100.504H171.249C171.367 100.504 171.462 100.408 171.462 100.291V99.6878C171.462 99.57 171.367 99.4746 171.249 99.4746Z" fill="#282A2D"/>
<path d="M174.68 99.4746H173.391C173.273 99.4746 173.178 99.57 173.178 99.6878V100.291C173.178 100.408 173.273 100.504 173.391 100.504H174.68C174.798 100.504 174.893 100.408 174.893 100.291V99.6878C174.893 99.57 174.798 99.4746 174.68 99.4746Z" fill="#282A2D"/>
<path d="M178.111 99.4746H176.822C176.704 99.4746 176.608 99.57 176.608 99.6878V100.291C176.608 100.408 176.704 100.504 176.822 100.504H178.111C178.228 100.504 178.324 100.408 178.324 100.291V99.6878C178.324 99.57 178.228 99.4746 178.111 99.4746Z" fill="#282A2D"/>
<path d="M181.542 99.4746H180.253C180.135 99.4746 180.04 99.57 180.04 99.6878V100.291C180.04 100.408 180.135 100.504 180.253 100.504H181.542C181.659 100.504 181.755 100.408 181.755 100.291V99.6878C181.755 99.57 181.659 99.4746 181.542 99.4746Z" fill="#282A2D"/>
<path d="M184.972 99.4746H183.683C183.565 99.4746 183.47 99.57 183.47 99.6878V100.291C183.47 100.408 183.565 100.504 183.683 100.504H184.972C185.09 100.504 185.185 100.408 185.185 100.291V99.6878C185.185 99.57 185.09 99.4746 184.972 99.4746Z" fill="#282A2D"/>
<path d="M188.403 99.4746H187.114C186.996 99.4746 186.901 99.57 186.901 99.6878V100.291C186.901 100.408 186.996 100.504 187.114 100.504H188.403C188.521 100.504 188.616 100.408 188.616 100.291V99.6878C188.616 99.57 188.521 99.4746 188.403 99.4746Z" fill="#282A2D"/>
<path d="M191.834 99.4746H190.545C190.427 99.4746 190.332 99.57 190.332 99.6878V100.291C190.332 100.408 190.427 100.504 190.545 100.504H191.834C191.951 100.504 192.047 100.408 192.047 100.291V99.6878C192.047 99.57 191.951 99.4746 191.834 99.4746Z" fill="#282A2D"/>
<path d="M195.264 99.4746H193.975C193.857 99.4746 193.762 99.57 193.762 99.6878V100.291C193.762 100.408 193.857 100.504 193.975 100.504H195.264C195.382 100.504 195.477 100.408 195.477 100.291V99.6878C195.477 99.57 195.382 99.4746 195.264 99.4746Z" fill="#282A2D"/>
<path d="M198.695 99.4746H197.406C197.288 99.4746 197.193 99.57 197.193 99.6878V100.291C197.193 100.408 197.288 100.504 197.406 100.504H198.695C198.813 100.504 198.908 100.408 198.908 100.291V99.6878C198.908 99.57 198.813 99.4746 198.695 99.4746Z" fill="#282A2D"/>
<path d="M202.126 99.4746H200.837C200.719 99.4746 200.624 99.57 200.624 99.6878V100.291C200.624 100.408 200.719 100.504 200.837 100.504H202.126C202.244 100.504 202.339 100.408 202.339 100.291V99.6878C202.339 99.57 202.244 99.4746 202.126 99.4746Z" fill="#282A2D"/>
<path d="M205.557 99.4746H204.268C204.15 99.4746 204.055 99.57 204.055 99.6878V100.291C204.055 100.408 204.15 100.504 204.268 100.504H205.557C205.675 100.504 205.77 100.408 205.77 100.291V99.6878C205.77 99.57 205.675 99.4746 205.557 99.4746Z" fill="#282A2D"/>
<path d="M154.055 101.19H152.766C152.648 101.19 152.553 101.285 152.553 101.403V102.006C152.553 102.124 152.648 102.219 152.766 102.219H154.055C154.173 102.219 154.268 102.124 154.268 102.006V101.403C154.268 101.285 154.173 101.19 154.055 101.19Z" fill="#282A2D"/>
<path d="M157.486 101.19H156.197C156.079 101.19 155.983 101.285 155.983 101.403V102.006C155.983 102.124 156.079 102.219 156.197 102.219H157.486C157.603 102.219 157.699 102.124 157.699 102.006V101.403C157.699 101.285 157.603 101.19 157.486 101.19Z" fill="#282A2D"/>
<path d="M160.917 101.19H159.628C159.51 101.19 159.415 101.285 159.415 101.403V102.006C159.415 102.124 159.51 102.219 159.628 102.219H160.917C161.034 102.219 161.13 102.124 161.13 102.006V101.403C161.13 101.285 161.034 101.19 160.917 101.19Z" fill="#282A2D"/>
<path d="M164.347 101.19H163.058C162.94 101.19 162.845 101.285 162.845 101.403V102.006C162.845 102.124 162.94 102.219 163.058 102.219H164.347C164.465 102.219 164.56 102.124 164.56 102.006V101.403C164.56 101.285 164.465 101.19 164.347 101.19Z" fill="#282A2D"/>
<path d="M167.778 101.19H166.489C166.371 101.19 166.275 101.285 166.275 101.403V102.006C166.275 102.124 166.371 102.219 166.489 102.219H167.778C167.895 102.219 167.991 102.124 167.991 102.006V101.403C167.991 101.285 167.895 101.19 167.778 101.19Z" fill="#282A2D"/>
<path d="M171.209 101.19H169.92C169.802 101.19 169.707 101.285 169.707 101.403V102.006C169.707 102.124 169.802 102.219 169.92 102.219H171.209C171.326 102.219 171.422 102.124 171.422 102.006V101.403C171.422 101.285 171.326 101.19 171.209 101.19Z" fill="#282A2D"/>
<path d="M174.639 101.19H173.35C173.233 101.19 173.137 101.285 173.137 101.403V102.006C173.137 102.124 173.233 102.219 173.35 102.219H174.639C174.757 102.219 174.853 102.124 174.853 102.006V101.403C174.853 101.285 174.757 101.19 174.639 101.19Z" fill="#282A2D"/>
<path d="M178.07 101.19H176.781C176.663 101.19 176.568 101.285 176.568 101.403V102.006C176.568 102.124 176.663 102.219 176.781 102.219H178.07C178.188 102.219 178.283 102.124 178.283 102.006V101.403C178.283 101.285 178.188 101.19 178.07 101.19Z" fill="#282A2D"/>
<path d="M181.501 101.19H180.212C180.094 101.19 179.999 101.285 179.999 101.403V102.006C179.999 102.124 180.094 102.219 180.212 102.219H181.501C181.618 102.219 181.714 102.124 181.714 102.006V101.403C181.714 101.285 181.618 101.19 181.501 101.19Z" fill="#282A2D"/>
<path d="M184.932 101.19H183.643C183.525 101.19 183.43 101.285 183.43 101.403V102.006C183.43 102.124 183.525 102.219 183.643 102.219H184.932C185.05 102.219 185.145 102.124 185.145 102.006V101.403C185.145 101.285 185.05 101.19 184.932 101.19Z" fill="#282A2D"/>
<path d="M188.363 101.19H187.074C186.956 101.19 186.86 101.285 186.86 101.403V102.006C186.86 102.124 186.956 102.219 187.074 102.219H188.363C188.48 102.219 188.576 102.124 188.576 102.006V101.403C188.576 101.285 188.48 101.19 188.363 101.19Z" fill="#282A2D"/>
<path d="M191.793 101.19H190.504C190.386 101.19 190.291 101.285 190.291 101.403V102.006C190.291 102.124 190.386 102.219 190.504 102.219H191.793C191.911 102.219 192.006 102.124 192.006 102.006V101.403C192.006 101.285 191.911 101.19 191.793 101.19Z" fill="#282A2D"/>
<path d="M195.224 101.19H193.935C193.817 101.19 193.722 101.285 193.722 101.403V102.006C193.722 102.124 193.817 102.219 193.935 102.219H195.224C195.342 102.219 195.437 102.124 195.437 102.006V101.403C195.437 101.285 195.342 101.19 195.224 101.19Z" fill="#282A2D"/>
<path d="M198.655 101.19H197.366C197.248 101.19 197.152 101.285 197.152 101.403V102.006C197.152 102.124 197.248 102.219 197.366 102.219H198.655C198.772 102.219 198.868 102.124 198.868 102.006V101.403C198.868 101.285 198.772 101.19 198.655 101.19Z" fill="#282A2D"/>
<path d="M202.086 101.19H200.797C200.679 101.19 200.583 101.285 200.583 101.403V102.006C200.583 102.124 200.679 102.219 200.797 102.219H202.086C202.203 102.219 202.299 102.124 202.299 102.006V101.403C202.299 101.285 202.203 101.19 202.086 101.19Z" fill="#282A2D"/>
<path d="M205.516 101.19H204.227C204.11 101.19 204.014 101.285 204.014 101.403V102.006C204.014 102.124 204.11 102.219 204.227 102.219H205.516C205.634 102.219 205.73 102.124 205.73 102.006V101.403C205.73 101.285 205.634 101.19 205.516 101.19Z" fill="#282A2D"/>
<path d="M182.53 103.248H169.233C169.115 103.248 169.02 103.344 169.02 103.462V104.064C169.02 104.182 169.115 104.278 169.233 104.278H182.53C182.648 104.278 182.743 104.182 182.743 104.064V103.462C182.743 103.344 182.648 103.248 182.53 103.248Z" fill="#282A2D"/>
<path d="M220.558 20.3547H132.963C132.77 20.3505 132.618 20.1911 132.622 19.9987C132.626 19.8123 132.776 19.6621 132.963 19.658H220.558C220.751 19.6623 220.903 19.8217 220.899 20.014C220.895 20.2005 220.745 20.3506 220.558 20.3547Z" fill="#282A2D"/>
<path d="M138.926 17.8795C140.053 17.8795 140.967 16.9451 140.967 15.7925C140.967 14.6399 140.053 13.7056 138.926 13.7056C137.798 13.7056 136.884 14.6399 136.884 15.7925C136.884 16.9451 137.798 17.8795 138.926 17.8795Z" fill="#282A2D"/>
<path d="M145.978 17.8795C147.106 17.8795 148.02 16.9451 148.02 15.7925C148.02 14.6399 147.106 13.7056 145.978 13.7056C144.851 13.7056 143.937 14.6399 143.937 15.7925C143.937 16.9451 144.851 17.8795 145.978 17.8795Z" fill="#282A2D"/>
<path d="M153.03 17.8795C154.158 17.8795 155.072 16.9451 155.072 15.7925C155.072 14.6399 154.158 13.7056 153.03 13.7056C151.903 13.7056 150.989 14.6399 150.989 15.7925C150.989 16.9451 151.903 17.8795 153.03 17.8795Z" fill="#282A2D"/>
<path d="M176.671 25.6365L176.388 24.8099L212.569 6.01067L212.852 6.83728L176.671 25.6365Z" fill="#282A2D"/>
<path d="M285.837 60.4569L285.554 59.6303L307.325 40.9263L307.607 41.7524L285.837 60.4569Z" fill="#282A2D"/>
<path d="M244.009 64.8109L207.828 46.0116L208.111 45.185L244.292 63.9843L244.009 64.8109Z" fill="#282A2D"/>
<path d="M262.53 51.7293L241.319 16.9072L241.989 16.3469L263.2 51.1691L262.53 51.7293Z" fill="#282A2D"/>
<path d="M279.083 6.3552L258.425 6.26001V5.38668L279.083 5.48187V6.3552Z" fill="#282A2D"/>
<path d="M316.503 11.7722H293.36C290.225 11.7722 287.684 9.23071 287.684 6.0956C287.684 2.96048 290.225 0.418974 293.36 0.418974H316.503C319.638 0.418974 322.18 2.96048 322.18 6.0956C322.18 9.23071 319.638 11.7722 316.503 11.7722Z" fill="#282A2D"/>
<path d="M345.324 44.9586H322.181C319.045 44.9586 316.504 42.4171 316.504 39.282C316.504 36.1469 319.045 33.6054 322.181 33.6054H345.324C348.459 33.6054 351 36.1469 351 39.282C351 42.4171 348.459 44.9586 345.324 44.9586Z" fill="#282A2D"/>
<path d="M307.903 68.3609L287.246 68.2662V67.3929L307.903 67.4876V68.3609Z" fill="#282A2D"/>
<path d="M345.324 73.7784H322.181C319.045 73.7784 316.504 71.2369 316.504 68.1018C316.504 64.9667 319.045 62.4252 322.181 62.4252H345.324C348.459 62.4252 351 64.9667 351 68.1018C351 71.2369 348.459 73.7784 345.324 73.7784Z" fill="#282A2D"/>
<path d="M277.641 69.8661H254.497C251.362 69.8661 248.821 67.3246 248.821 64.1895C248.821 61.0544 251.362 58.5129 254.497 58.5129H277.641C280.776 58.5129 283.317 61.0544 283.317 64.1895C283.317 67.3246 280.776 69.8661 277.641 69.8661Z" fill="#282A2D"/>
<path d="M246.201 11.3532H223.057C219.922 11.3532 217.381 8.81174 217.381 5.67663C217.381 2.54151 219.922 3.8147e-06 223.057 3.8147e-06H246.201C249.336 3.8147e-06 251.877 2.54151 251.877 5.67663C251.877 8.81174 249.336 11.3532 246.201 11.3532Z" fill="#282A2D"/>
<path d="M135.582 108.808H109.382C107.453 108.808 105.889 110.372 105.889 112.301C105.889 114.23 107.453 115.794 109.382 115.794H118.989V142.868H125.975V115.794H135.582C137.511 115.794 139.075 114.23 139.075 112.301C139.075 110.372 137.511 108.808 135.582 108.808Z" fill="#282A2D"/>
<path d="M152.874 157.861H82.7968C68.7544 157.81 56.8737 147.468 54.8869 133.567L52.4063 124.443C47.2721 105.535 39.4516 87.4619 29.184 70.7755C24.491 63.1541 22.0756 55.7766 27.5619 48.6737C27.6086 48.6132 27.6545 48.5536 27.6997 48.4948C32.1 42.7674 54.0018 41.5276 61.1417 41.2864C61.4238 41.2768 61.707 41.2721 61.9912 41.2722H105.578C105.863 41.2722 106.146 41.2769 106.428 41.2864C114.269 41.515 121.353 46.0298 124.871 53.0418C128.625 60.2008 128.146 68.8427 123.624 75.543C108.313 98.5424 103.625 112.964 108.424 122.303C113.066 131.337 127.297 135.955 153.208 136.837C160.171 137.075 163.367 142.497 163.389 147.434C163.411 152.243 160.338 157.554 153.541 157.847C153.32 157.857 153.098 157.861 152.874 157.861Z" fill="#86888A"/>
<path d="M94.7013 220.086H120.901C122.83 220.086 124.394 218.522 124.394 216.592C124.394 214.663 122.83 213.099 120.901 213.099H111.295V154.15H104.308V213.099H94.7013C92.772 213.099 91.208 214.663 91.208 216.592C91.208 218.522 92.772 220.086 94.7013 220.086Z" fill="#282A2D"/>
<path d="M118.415 196.32L122.928 198.772L134.876 182.252L128.214 178.634L118.415 196.32Z" fill="#282A2D"/>
<path d="M120.587 190.434L128.781 192.999L127.476 196.432L133.095 204.587C133.814 205.63 133.551 207.058 132.508 207.777C131.887 208.204 131.096 208.3 130.392 208.032L120.853 204.408L120.499 200.388L118.567 203.54L114.971 202.174L120.587 190.434Z" fill="#282A2D"/>
<path d="M129.818 29.7261C130.223 32.4977 128.304 35.0723 125.532 35.4766C125.236 35.5197 124.938 35.5366 124.639 35.5272L107.238 72.5541L101.78 64.9432L119.693 29.9311C119.969 27.1284 122.464 25.0795 125.266 25.3548C127.612 25.5851 129.493 27.3923 129.818 29.7261Z" fill="#282A2D"/>
<path d="M72.0699 80.0406C72.0699 80.0406 71.6036 86.5092 78.9191 87.7779C86.2345 89.0466 105.791 76.6801 109.003 74.7812C112.214 72.8824 118.2 48.9916 118.2 48.9916L112.994 40.1877C106.568 48.317 101.521 55.8133 101.215 61.1344L72.0699 80.0406Z" fill="#282A2D"/>
<path d="M80.5146 102.322L82.0946 109.111C82.0946 109.111 82.1101 115.37 83.2187 116.524C84.3195 117.673 108.526 115.366 108.526 115.366C108.526 115.366 105.959 105.28 105.993 97.6473L80.5146 102.322Z" fill="#282A2D"/>
<path d="M131.652 189.154L122.918 184.351C122.752 172.987 129.588 157.608 137.695 141.5C119.563 144.618 102.458 145.617 87.6624 141.845C82.6083 140.51 79.5623 135.365 80.823 130.292C80.8806 130.052 80.9472 129.815 81.0228 129.581C82.7936 124.179 78.8231 120.792 82.475 114.85C92.08 111.57 101.204 110.643 109.548 113.54L114.776 125.099L140.689 121.746C145.928 121.119 150.684 124.859 151.31 130.099C151.313 130.123 151.316 130.147 151.319 130.171C151.354 130.452 151.376 130.734 151.387 131.018C146.147 155.581 140.272 177.683 131.652 189.154Z" fill="#282A2D"/>
<path d="M76.9975 59.3444L86.98 58.755C87.843 58.704 88.6433 59.2061 88.9729 60.0052L91.794 66.8441L103.518 76.5346C103.518 76.5346 108.16 82.4418 108.171 90.0707C108.182 97.6997 109.818 115.358 109.818 115.358C109.818 115.358 103.043 105.822 98.8618 108.358C98.1504 108.79 97.9002 109.672 97.155 110.118C96.7833 110.34 95.9246 110.124 95.5492 110.347C89.787 113.767 83.7777 117.109 83.2162 116.523C82.1138 115.373 80.7765 109.494 80.7765 109.494L71.6388 75.9203C70.6357 72.3435 71.2842 68.5056 73.407 65.4571C74.0453 64.5583 74.7142 63.8896 75.3358 63.779C76.7314 63.4818 75.989 60.3539 76.9975 59.3444Z" fill="#282A2D"/>
<path d="M161.915 210.542L166.129 207.612L156.583 189.602L150.364 193.926L161.915 210.542Z" fill="#282A2D"/>
<path d="M162.552 198.457L155.948 204.36C145.447 192.66 137.509 176.25 130.782 157.614C113.155 152.452 99.8627 144.127 88.2585 134.241C84.3218 130.91 81.3707 126.631 84.7282 122.573C84.8851 122.384 85.049 122.2 85.2199 122.023C89.184 117.949 99.237 118.725 105.125 114.993L118.278 129.052L117.451 132.821L142.156 141.189C147.129 142.932 149.748 148.377 148.005 153.35C147.996 153.375 147.988 153.399 147.979 153.424C147.886 153.691 147.782 153.955 147.667 154.214L162.552 198.457Z" fill="#282A2D"/>
<path d="M159.458 209.354L166.204 204.042L168.3 207.057L178.202 207.027C179.469 207.023 180.499 208.047 180.503 209.313C180.506 210.067 180.138 210.774 179.519 211.204L171.141 217.028L167.623 215.05L169.133 218.424L165.974 220.62L159.458 209.354Z" fill="#282A2D"/>
<path d="M91.7387 143.956C89.1603 142.862 87.9573 139.884 89.0517 137.306C89.1684 137.031 89.3091 136.767 89.4722 136.517L66.873 102.413L76.2116 101.703L96.8232 135.198C99.0751 136.889 99.5297 140.085 97.8386 142.337C96.4236 144.222 93.9018 144.891 91.7387 143.956Z" fill="#282A2D"/>
<path d="M78.745 68.4735C78.745 68.4735 73.46 64.7148 68.5757 70.3066C63.6914 75.8985 64.0992 99.0333 64.0533 102.764C64.0389 103.932 65.7259 106.453 68.0501 109.365C69.0936 110.672 70.2655 112.058 71.4695 113.436C72.1663 114.233 71.5659 115.893 72.2655 116.668C72.9613 117.439 74.9572 117.325 75.619 118.04C78.7605 121.435 81.3125 124.02 81.3125 124.02L91.5393 124.146C91.6546 116.543 86.4484 109.757 79.7599 103.199L78.745 68.4735Z" fill="#282A2D"/>
<path d="M68.4364 35.3731C67.4682 36.072 66.4496 36.7919 65.2681 36.9651C64.0867 37.1383 62.7035 36.5671 62.3766 35.4187C61.9768 34.0145 63.2448 32.7359 64.3844 31.8234L67.9982 28.9296C68.66 28.3427 69.4071 27.8597 70.2139 27.497C71.0348 27.1358 71.9753 27.1673 72.7703 27.5825C73.56 28.1158 74.0167 29.0205 73.9768 29.9726C73.9253 30.9111 73.6155 31.8171 73.0818 32.5907C71.7262 34.7036 69.5668 36.1715 67.1034 36.6546" fill="#282A2D"/>
<path d="M95.8454 110.555H69.6456C67.7164 110.555 66.1523 112.119 66.1523 114.048C66.1523 115.977 67.7164 117.541 69.6456 117.541H79.2522V144.614H86.2389V117.541H95.8454C97.7747 117.541 99.3387 115.977 99.3387 114.048C99.3387 112.119 97.7747 110.555 95.8454 110.555Z" fill="#282A2D"/>
<path d="M70.0419 28.044C70.1473 25.4249 67.3562 23.3509 64.7409 23.5149C62.1255 23.6788 59.8772 25.5185 58.394 27.6797C56.9113 29.839 56.0206 32.3402 54.8525 34.6848C53.6844 37.0293 52.1288 39.3249 49.8076 40.5399C47.4869 41.753 44.2564 41.5366 42.6523 39.4652C41.6407 40.9993 41.4207 42.9236 42.0599 44.6464C42.7166 46.3469 43.9413 47.7679 45.5262 48.6684C46.1571 49.0426 46.831 49.3389 47.5332 49.5509C47.8227 48.7695 48.23 48.0369 48.7411 47.3786C48.5102 48.1579 48.4221 48.9725 48.481 49.7832C49.5632 49.9906 50.6766 49.9731 51.7517 49.7316C53.8925 49.2528 55.6823 47.7931 56.582 45.7924C57.5629 43.4703 57.0633 40.8228 57.2731 38.311C57.4811 35.7986 58.995 32.9307 61.5157 32.8897C63.4354 32.8581 63.1813 33.0164 64.3977 34.5018" fill="#282A2D"/>
<path d="M87.4734 41.807C87.4734 48.0772 82.3904 53.1602 76.1201 53.1602C69.8499 53.1602 63.8936 45.8939 63.8936 39.6237C63.8936 33.3534 69.8499 30.4537 76.1201 30.4537C82.3904 30.4537 87.4734 35.5368 87.4734 41.807Z" fill="#282A2D"/>
<path d="M81.715 55.4125C87.5756 54.2133 91.3545 48.4902 90.1553 42.6296C88.9561 36.769 83.233 32.9901 77.3723 34.1893C71.5117 35.3885 67.7329 41.1116 68.9321 46.9723C70.1313 52.8329 75.8544 56.6117 81.715 55.4125Z" fill="#282A2D"/>
<path d="M93.1507 43.117C89.9443 43.9925 86.7069 44.9102 85.4567 43.117C85.2137 41.9279 84.7533 40.794 84.0986 39.7721C83.9755 40.9165 83.707 42.0405 83.2995 43.117C79.2486 43.9975 75.4625 44.208 72.1908 43.117C71.741 43.9306 71.4799 44.835 71.4267 45.7632C71.2649 45.6615 71.0956 45.5725 70.9201 45.4968C70.7098 45.3779 70.4583 45.3556 70.2302 45.4357C70.0725 45.5309 69.9677 45.6937 69.9464 45.8767C69.9247 46.0588 69.9335 46.2433 69.9726 46.4225C70.0184 47.0471 70.205 47.6532 70.5184 48.1954C70.7691 48.573 71.1667 48.828 71.6145 48.8984C72.0686 51.4529 75.6842 54.9069 75.6842 54.9069C64.7676 55.3435 64.7676 47.9377 64.7676 40.9337L66.0776 38.3137H70.4442V32.6371H82.6708C88.458 32.6386 93.1492 37.3297 93.1507 43.117Z" fill="#282A2D"/>
<path d="M192.638 221.35L1.05194 221.484C0.764792 221.485 0.530802 221.254 0.529304 220.967C0.527806 220.679 0.759369 220.445 1.04651 220.444H1.05194L192.638 220.31C192.925 220.311 193.157 220.544 193.156 220.831C193.155 221.117 192.924 221.349 192.638 221.35Z" fill="#282A2D"/>
<path d="M320.58 221.35L221.567 221.484C221.279 221.485 221.045 221.254 221.044 220.967C221.042 220.679 221.274 220.445 221.561 220.444H221.567L320.58 220.31C320.867 220.309 321.101 220.541 321.102 220.828C321.103 221.115 320.87 221.349 320.583 221.35H320.58Z" fill="#282A2D"/>
<path d="M197.016 64.6261H159.484C156.224 64.6225 153.582 61.9808 153.579 58.721V33.8516C153.582 30.5918 156.224 27.9501 159.484 27.9464H197.016C200.276 27.9501 202.918 30.5918 202.922 33.8516V58.721C202.918 61.9808 200.276 64.6225 197.016 64.6261ZM159.484 28.8198C156.706 28.8229 154.455 31.0739 154.452 33.8516V58.721C154.455 61.4987 156.706 63.7497 159.484 63.7528H197.016C199.794 63.7497 202.045 61.4987 202.048 58.721V33.8516C202.045 31.0739 199.794 28.8229 197.016 28.8198L159.484 28.8198Z" fill="#282A2D"/>
<path d="M170.604 35.8064H160.565V36.6797H170.604V35.8064Z" fill="#282A2D"/>
<path d="M182.835 39.2997H160.565V40.173H182.835V39.2997Z" fill="#282A2D"/>
<path d="M182.835 42.3563H160.565V43.2297H182.835V42.3563Z" fill="#282A2D"/>
<path d="M188.948 45.413H160.565V46.2863H188.948V45.413Z" fill="#282A2D"/>
<path d="M175.411 48.4696H160.565V49.343H175.411V48.4696Z" fill="#282A2D"/>
<path d="M187.638 51.5263H160.565V52.3996H187.638V51.5263Z" fill="#282A2D"/>
<path d="M165.368 54.5829H160.565V55.4562H165.368V54.5829Z" fill="#282A2D"/>
<path d="M160.239 17.0117C160.196 17.0117 160.154 16.9953 160.122 16.9626L159.19 16.0101C159.128 15.9467 159.128 15.8453 159.19 15.7818L160.122 14.8294C160.185 14.765 160.289 14.764 160.353 14.8269C160.417 14.89 160.418 14.9934 160.355 15.0578L159.535 15.896L160.355 16.7342C160.418 16.7986 160.417 16.9021 160.353 16.9651C160.321 16.9962 160.28 17.0117 160.239 17.0117Z" fill="#282A2D"/>
<path d="M161.804 17.0117C161.763 17.0117 161.721 16.9962 161.69 16.9651C161.625 16.902 161.624 16.7987 161.687 16.7342L162.507 15.896L161.687 15.0578C161.624 14.9933 161.625 14.8899 161.69 14.8269C161.754 14.7637 161.858 14.7649 161.921 14.8294L162.852 15.7818C162.914 15.8452 162.914 15.9467 162.852 16.0101L161.921 16.9626C161.889 16.9952 161.846 17.0117 161.804 17.0117Z" fill="#282A2D"/>
<path d="M210.546 14.6478H208.813C208.616 14.6478 208.456 14.8078 208.456 15.0054V16.7395C208.456 16.9371 208.616 17.0971 208.813 17.0971H210.546C210.743 17.0971 210.905 16.9371 210.905 16.7395V15.0054C210.905 14.8078 210.743 14.6478 210.546 14.6478Z" fill="#282A2D"/>
<path d="M206.3 14.6478H204.568C204.37 14.6478 204.21 14.8078 204.21 15.0054V16.7395C204.21 16.9371 204.37 17.0971 204.568 17.0971H206.3C206.498 17.0971 206.66 16.9371 206.66 16.7395V15.0054C206.66 14.8078 206.498 14.6478 206.3 14.6478Z" fill="#282A2D"/>
<path d="M214.546 14.7295H212.814C212.616 14.7295 212.456 14.8895 212.456 15.0871V16.8211C212.456 17.0187 212.616 17.1787 212.814 17.1787H214.546C214.744 17.1787 214.905 17.0187 214.905 16.8211V15.0871C214.905 14.8895 214.744 14.7295 214.546 14.7295Z" fill="#282A2D"/>
<path d="M188.433 15.3891H174.585C174.344 15.3891 174.149 15.5851 174.149 15.8251C174.149 16.0651 174.344 16.2611 174.585 16.2611H188.433C188.673 16.2611 188.869 16.0651 188.869 15.8251C188.869 15.5851 188.673 15.3891 188.433 15.3891Z" fill="#282A2D"/>
</g>
<defs>
<clipPath id="clip0_483_394">
<rect width="350.471" height="221.484" fill="white" transform="translate(0.529297)"/>
</clipPath>
</defs>
</svg>
